<?xml version="1.0" encoding="UTF-8" standalone="no"?>
<!-- Created with Inkscape (http://www.inkscape.org/) -->

<svg
   version="1.1"
   id="svg884"
   width="352"
   height="352"
   viewBox="-1.8 -26 351.99999 352"
   sodipodi:docname="espaco_adh_logo.svg"
   inkscape:version="1.2.2 (b0a8486541, 2022-12-01)"
   xmlns:inkscape="http://www.inkscape.org/namespaces/inkscape"
   xmlns:sodipodi="http://sodipodi.sourceforge.net/DTD/sodipodi-0.dtd"
   xmlns="http://www.w3.org/2000/svg"
   xmlns:svg="http://www.w3.org/2000/svg">
  <defs
     id="defs888">
    <rect
       x="718.69073"
       y="505.60742"
       width="350.81134"
       height="80.281906"
       id="rect6577" />
    <rect
       x="718.84613"
       y="415.83652"
       width="350.67181"
       height="52.887695"
       id="rect6521" />
  </defs>
  <sodipodi:namedview
     id="namedview886"
     pagecolor="#ffffff"
     bordercolor="#000000"
     borderopacity="0.25"
     inkscape:showpageshadow="2"
     inkscape:pageopacity="0.0"
     inkscape:pagecheckerboard="0"
     inkscape:deskcolor="#d1d1d1"
     showgrid="false"
     showguides="true"
     inkscape:zoom="1.6698195"
     inkscape:cx="16.169412"
     inkscape:cy="164.68846"
     inkscape:window-width="1920"
     inkscape:window-height="963"
     inkscape:window-x="0"
     inkscape:window-y="29"
     inkscape:window-maximized="1"
     inkscape:current-layer="g890" />
  <g
     inkscape:groupmode="layer"
     inkscape:label="Image"
     id="g890"
     transform="translate(-403.79262,-131.5617)">
    <g
       id="g224"
       transform="translate(-315.72748,118.62226)">
      <path
         style="fill:#ffc100;fill-opacity:1"
         d="m 764.32794,155.50164 c -23.26308,0.13116 -42.67156,0.006 -43.12997,-0.27724 -0.45842,-0.28364 -1.36136,-3.54704 -2.00655,-7.252 -0.90362,-5.18896 -0.89658,-8.74572 0.0306,-15.48429 0.66205,-4.8114 2.28392,-12.02152 3.60416,-16.02249 1.32025,-4.00098 4.15467,-10.76346 6.29871,-15.02775 2.14404,-4.264279 6.71203,-11.565759 10.15109,-16.225499 3.43905,-4.65974 10.12182,-12.32191 14.85058,-17.02705 4.72877,-4.70513 12.87276,-11.7351 18.09776,-15.62215 5.225,-3.88705 13.38593,-9.29164 18.13539,-12.01021 4.74947,-2.71857 12.17447,-6.43284 16.5,-8.25395 4.32554,-1.8211 9.21461,-3.87498 10.86461,-4.56416 1.65,-0.68919 6.6,-2.4154 11,-3.83602 4.4,-1.42063 12.62169,-3.7107 18.27043,-5.08904 5.64874,-1.37834 15.32374,-3.17156 21.5,-3.98493 6.17626,-0.81337 14.90458,-1.7712 19.39625,-2.12851 l 8.16668,-0.64965 0.33332,27.8467 c 0.29893,24.97385 0.53003,28.24289 2.24007,31.68692 1.04871,2.11211 2.83193,4.18245 3.9627,4.60076 1.13078,0.4183 2.81252,0.5627 3.73721,0.32089 0.92468,-0.24181 4.38346,-3.29296 7.68616,-6.78032 4.06391,-4.29113 7.26251,-6.71744 9.89556,-7.50632 2.88691,-0.86494 4.94908,-0.88066 7.99338,-0.0609 2.63171,0.70864 5.38196,2.5207 7.67053,5.05388 2.18463,2.41811 4.20655,6.14632 5.21539,9.61663 1.05733,3.6371 1.41894,7.14488 1.00937,9.79134 -0.35103,2.26811 -1.73735,6.37384 -3.08071,9.12384 -1.40068,2.86732 -3.92073,5.996789 -5.90818,7.336939 -1.90613,1.28532 -5.23059,2.57367 -7.38768,2.863 -2.55914,0.34325 -5.14699,-0.0553 -7.44725,-1.1468 -1.9389,-0.92007 -5.5927,-4.33512 -8.11957,-7.588999 -2.53596,-3.26559 -5.68145,-6.18902 -7.02085,-6.52518 -1.33459,-0.33496 -3.36378,-0.10742 -4.50932,0.50565 -1.14553,0.61307 -2.87141,2.56384 -3.83527,4.33503 -1.51487,2.78371 -1.82135,7.084679 -2.26035,31.720359 l -0.50787,28.5 -27,-0.1252 c -22.44913,-0.10411 -27.65171,-0.39868 -30.86654,-1.74767 l -3.86654,-1.62246 1.78663,-2.75234 c 0.98265,-1.51378 3.69741,-4.4449 6.03279,-6.51359 2.33538,-2.0687 5.23235,-5.79847 6.43769,-8.28839 1.72347,-3.56019 2.04854,-5.48074 1.522,-8.99196 -0.40561,-2.7048 -1.94037,-6.13894 -3.89334,-8.71162 -1.79112,-2.35947 -5.65225,-5.56645 -8.68825,-7.21629 -4.68338,-2.54507 -6.55024,-2.972 -13.06087,-2.98684 -6.48888,-0.0148 -8.444,0.41815 -13.40965,2.96952 -4.14504,2.12973 -6.77177,4.38124 -9.15357,7.84603 -2.78234,4.0475 -3.34032,5.76796 -3.34032,10.29965 0,2.99226 0.65422,6.7056 1.45383,8.25187 0.79961,1.54627 4.17461,5.16845 7.5,8.04928 3.32539,2.88084 6.04617,6.05847 6.04617,7.06139 0,1.17626 -1.1713,2.21007 -3.29996,2.91259 -2.11997,0.69966 -18.42417,1.17436 -45.59645,1.32755 z"
         id="path3287" />
      <path
         style="fill:#00b6c4;fill-opacity:1"
         d="m 974.27801,205.13799 c -3.60451,-0.0562 -8.12404,-0.60218 -10.04339,-1.21341 -1.91935,-0.61123 -5.37232,-2.99392 -7.67327,-5.29487 -3.17096,-3.17096 -4.34089,-5.23717 -4.83361,-8.53659 -0.37183,-2.48985 -0.16767,-5.6371 0.47697,-7.35304 0.61987,-1.65 4.06401,-5.97271 7.65365,-9.60603 5.42117,-5.48713 6.47067,-7.08792 6.1963,-9.4511 -0.23341,-2.01048 -1.35702,-3.44611 -3.83031,-4.89397 -3.27217,-1.91553 -5.40399,-2.07033 -32.75,-2.37813 l -29.25,-0.32923 0.0147,-28.17077 c 0.0108,-20.64482 0.35144,-28.838659 1.27503,-30.670769 0.69316,-1.375 2.19719,-2.63537 3.34229,-2.80082 1.49711,-0.2163 3.56584,1.412 7.36391,5.796169 2.90505,3.35335 6.54704,6.75121 8.09331,7.55082 1.54627,0.79961 4.90324,1.45383 7.45993,1.45383 2.55669,0 6.1939,-0.73332 8.08268,-1.62961 1.88878,-0.89628 4.96986,-3.42375 6.84685,-5.61659 1.87699,-2.192839 4.11213,-6.039679 4.96698,-8.548529 0.85486,-2.50885 1.55177,-6.84389 1.5487,-9.63341 -0.003,-2.78952 -0.47108,-6.74799 -1.04003,-8.7966 -0.56895,-2.04861 -2.48541,-5.64861 -4.2588,-8 -1.77339,-2.35139 -5.22573,-5.28776 -7.67186,-6.52526 -2.44613,-1.2375 -6.16661,-2.25 -8.26774,-2.25 -2.10112,0 -5.26827,0.62552 -7.03811,1.39004 -1.76983,0.76452 -5.90379,4.13952 -9.18658,7.5 -3.28278,3.36048 -6.56824,6.10996 -7.30102,6.10996 -0.73278,0 -1.98437,-1.56055 -2.78131,-3.46788 -1.14467,-2.73968 -1.44893,-9.17582 -1.44893,-30.65032 v -27.18244 l 10.10424,0.66217 c 5.55734,0.3642 11.96984,1.07061 14.25,1.56981 2.28017,0.4992 6.84576,1.43973 10.14576,2.09007 3.3,0.65034 10.73451,2.70081 16.52114,4.55661 5.78663,1.8558 16.81163,6.49514 24.5,10.30964 7.68837,3.81449 17.75651,9.47458 22.37365,12.57797 4.61716,3.10338 11.67436,8.32232 15.68266,11.59763 4.0083,3.27531 11.6415,10.33848 16.9627,15.69593 5.3212,5.35744 12.718,13.79081 16.4373,18.74081 3.7193,4.95 8.8066,12.824999 11.305,17.499999 2.4985,4.675 5.294,10.75 6.2123,13.5 0.9183,2.75 2.307,8.6 3.0861,13 0.779,4.4 1.417,9.85625 1.4178,12.125 7e-4,2.26875 -0.2752,5.50767 -0.6132,7.19761 l -0.6145,3.0726 -39.6355,0.3024 c -37.88976,0.28907 -39.78946,0.39286 -43.13218,2.35653 -1.9232,1.12978 -3.65055,2.85287 -3.83856,3.8291 -0.188,0.97622 -0.0709,2.85436 0.26021,4.17363 0.33112,1.31928 3.09787,4.28307 6.14835,6.5862 3.05048,2.30313 6.19441,5.44078 6.98653,6.97256 0.79211,1.53178 1.4402,4.68036 1.4402,6.99685 0,2.68179 -0.9029,5.75249 -2.4855,8.45299 -1.77476,3.02839 -3.97557,4.98372 -7.69634,6.83786 -4.12526,2.0557 -6.57619,2.5754 -11.7645,2.49458 z"
         id="path3285" />
      <path
         style="fill:#ff431d;fill-opacity:1"
         d="m 886.47435,264.14983 c -5.9125,-0.0496 -13.92268,-0.66659 -17.8004,-1.37101 -3.87771,-0.70443 -9.50271,-1.99554 -12.5,-2.86914 -2.99728,-0.87361 -8.1496,-3.18659 -11.4496,-5.13997 -3.3,-1.95338 -7.98332,-5.68416 -10.40739,-8.29061 -2.42406,-2.60646 -5.49274,-7.09757 -6.81929,-9.98024 -1.32654,-2.88267 -2.89734,-8.17077 -3.49065,-11.75132 -1.04872,-6.32879 -1.17908,-6.5367 -4.68072,-7.46521 -1.98107,-0.52532 -7.70731,-1.86306 -12.72498,-2.97276 -5.01767,-1.1097 -14.30822,-3.34548 -20.64566,-4.96839 -6.33745,-1.62291 -15.04981,-4.36309 -19.3608,-6.08929 -4.31099,-1.72621 -11.51101,-5.58239 -16.00005,-8.56929 -4.48904,-2.98691 -11.25708,-8.74503 -15.04008,-12.79584 -4.06174,-4.34926 -8.43524,-10.39145 -10.68073,-14.75589 l -3.80254,-7.39079 44.32644,-0.5 c 39.91833,-0.45028 44.64821,-0.67584 47.56196,-2.26819 1.79425,-0.98054 3.5138,-2.87696 3.86024,-4.25728 0.38766,-1.54457 0.012,-3.42427 -0.99003,-4.95353 -0.88812,-1.35544 -3.60313,-3.93966 -6.03335,-5.74272 -2.43023,-1.80305 -5.35319,-4.91455 -6.49548,-6.91443 -1.14229,-1.99989 -2.07689,-5.05532 -2.07689,-6.78984 0,-1.73453 0.85212,-4.82326 1.89359,-6.86385 1.04148,-2.04059 2.73707,-4.47292 3.76798,-5.40517 1.03092,-0.93226 3.8913,-2.60988 6.35641,-3.72804 2.89359,-1.31252 6.60842,-2.03735 10.48202,-2.04522 4.24284,-0.009 7.4643,0.67834 11,2.34569 2.75,1.29684 5.98252,3.42995 7.18339,4.74023 1.20086,1.31029 2.66336,3.64914 3.25,5.19745 0.58663,1.5483 1.06661,4.16539 1.06661,5.81574 0,1.65035 -0.50955,3.98356 -1.13233,5.1849 -0.62279,1.20134 -3.99779,5.17801 -7.5,8.83703 -3.50222,3.65902 -6.36767,7.40111 -6.36767,8.31574 0,0.91464 0.43687,2.47928 0.97083,3.47698 0.53395,0.9977 2.79306,2.54312 5.02023,3.43426 3.39543,1.35858 8.56817,1.62025 32.02918,1.62025 h 27.97976 l -0.0596,25.75 c -0.0328,14.1625 -0.41593,27.91708 -0.85144,30.56572 -0.43551,2.64865 -1.57132,5.57365 -2.52403,6.5 -1.63099,1.58586 -2.0341,1.35577 -6.89857,-3.93762 -2.84149,-3.09204 -6.74135,-6.57786 -8.66635,-7.74626 -2.39705,-1.45492 -5.16697,-2.12554 -8.78984,-2.1281 -3.34638,-0.002 -6.7497,0.74103 -9.2634,2.02342 -2.18546,1.11494 -5.31887,3.88429 -6.96312,6.15412 -1.64425,2.26983 -3.49379,5.9701 -4.11009,8.22284 -0.61629,2.25273 -1.1069,6.63618 -1.09023,9.741 0.019,3.54171 0.83021,7.45407 2.1771,10.5 1.18075,2.67018 3.36018,6.14912 4.84319,7.73098 1.48302,1.58185 4.49639,3.70947 6.69639,4.72804 2.2,1.01856 5.575,1.85194 7.5,1.85194 1.925,0 5.33136,-0.83179 7.56968,-1.84842 2.54198,-1.15454 5.48791,-3.78043 7.84774,-6.99516 2.07793,-2.83071 4.68658,-5.63297 5.79698,-6.22725 1.54367,-0.82614 2.36189,-0.73753 3.47584,0.37642 0.8013,0.8013 1.86307,3.20773 2.35948,5.34762 0.49641,2.13989 0.9133,6.25321 0.92642,9.14071 l 0.0239,5.25 -10.75,-0.0903 z"
         id="path3283" />
      <path
         style="fill:#ff275a;fill-opacity:1"
         d="m 954.38674,307.3015 -0.66239,4.56143 -5,-1.06822 -5,-1.06821 -0.61901,-4.99321 c -0.34046,-2.74627 -1.35945,-7.8674 -2.26443,-11.38031 -0.90498,-3.5129 -3.09132,-9.1379 -4.85854,-12.5 -1.76721,-3.36209 -6.04596,-8.97731 -9.50833,-12.47825 l -6.29521,-6.36536 -7.72724,0.74523 c -4.24998,0.40987 -8.62724,0.79928 -9.72724,0.86535 -1.79438,0.10778 -2.06557,-0.70236 -2.63773,-7.87987 -0.35075,-4.4 -0.98165,-8.9 -1.402,-10 -0.42035,-1.1 -1.44061,-2.7875 -2.26726,-3.75 -0.82664,-0.9625 -2.64027,-1.75 -4.03028,-1.75 -1.84135,0 -4.47253,2.03561 -9.69427,7.5 -5.46118,5.71495 -7.85737,7.53589 -10.06772,7.6508 -1.59541,0.0829 -4.25074,0.0512 -5.90074,-0.0706 -1.65,-0.12175 -4.63219,-1.28439 -6.62709,-2.58365 -2.23416,-1.45509 -4.63438,-4.38367 -6.25,-7.6258 -1.90073,-3.81421 -2.62291,-6.82031 -2.62291,-10.91787 0,-3.10994 0.51215,-7.18408 1.1381,-9.05366 0.62596,-1.86957 2.25308,-4.90003 3.61583,-6.73436 1.36275,-1.83432 3.88811,-4.19514 5.6119,-5.24626 1.72379,-1.05112 4.83612,-1.91281 6.91629,-1.91486 2.08016,-0.002 5.26824,0.6172 7.08461,1.37613 1.81637,0.75893 5.02956,3.48752 7.14041,6.06354 2.11085,2.57601 5.13276,5.35326 6.71536,6.17165 1.5826,0.8184 3.7599,1.20791 4.83845,0.8656 1.07854,-0.34232 2.74355,-2.05301 3.70002,-3.80153 1.51769,-2.77449 1.77792,-6.90208 2.04458,-32.42913 l 0.30554,-29.25 21.69446,-0.25 c 11.93195,-0.1375 24.82504,-0.15354 28.65132,-0.0356 3.82627,0.1179 8.21377,0.73499 9.75,1.37132 1.53622,0.63632 2.79313,1.8484 2.79313,2.6935 0,0.8451 -2.7134,4.14262 -6.02978,7.32783 -3.31638,3.18521 -6.69138,7.37471 -7.5,9.31001 -0.80862,1.9353 -1.47022,5.12611 -1.47022,7.09069 0,1.96458 0.87349,5.28414 1.94109,7.3768 1.06759,2.09266 3.62237,5.28103 5.67727,7.08526 2.0549,1.80422 5.34391,3.95267 7.30891,4.77433 1.965,0.82165 6.27273,1.54255 9.57273,1.60199 3.3,0.0595 8.17967,-0.5144 10.84371,-1.27521 3.27131,-0.93423 6.37262,-2.87456 9.55346,-5.97709 3.24796,-3.16799 5.10702,-6.01643 5.98966,-9.17736 1.00052,-3.5831 1.02472,-5.54755 0.11079,-9 -0.91395,-3.45254 -2.67998,-5.83509 -8.09166,-10.91644 -3.80741,-3.575 -6.91882,-7.23291 -6.91426,-8.12868 0.005,-0.89577 1.4708,-2.24577 3.2583,-3 2.57603,-1.08694 11.08291,-1.34951 41.02185,-1.26616 20.7745,0.0578 37.9688,0.30217 38.2096,0.54295 0.2408,0.24078 -0.2125,3.2255 -1.0074,6.63271 -0.7948,3.4072 -3.9856,11.26033 -7.0905,17.45138 -5.5876,11.14138 -5.6544,11.3792 -6.5305,23.26213 -0.4868,6.60312 -1.5575,14.70567 -2.3793,18.00567 -0.8218,3.3 -3.1283,9.34178 -5.1256,13.42618 -2.5205,5.15426 -5.6959,9.49055 -10.3793,14.17392 -5.2301,5.23007 -8.853,7.76349 -16.1083,11.26395 -5.1483,2.48393 -12.2855,5.30962 -15.8605,6.27932 -5.17043,1.40245 -10.64178,1.77267 -26.74739,1.80987 l -20.24734,0.0468 -0.0903,15 c -0.0496,8.25 -0.38834,17.05264 -0.75266,19.56142 z"
         id="path3281" />
    </g>
    <text
       xml:space="preserve"
       id="text6575"
       style="white-space:pre;shape-inside:url(#rect6577);display:inline;fill:#ff275a;fill-opacity:1" />
  </g>
</svg>
